
EUROLEAGUE SEMIFINALS [ 10 MAY 2013 ] CSKA MOSCOW VS OLYMPIACOS PIRAEUS



Euroleague Semifinal [ 10 MAY 2013 ] CSKA Moscow vs. Olympiacos Piraeus [GR]1st half.avi
Format                                   : AVI
Format/Info                              : Audio Video Interleave
File size                                : 1.51 GiB
Duration                                 : 53mn 39s
Overall bit rate                         : 4 028 Kbps

Video
ID                                       : 0
Format                                   : AVC
Format/Info                              : Advanced Video Codec
Format profile                           : Main@L3.0
Format settings, CABAC                   : Yes
Format settings, ReFrames                : 5 frames
Codec ID                                 : H264
Duration                                 : 53mn 39s
Bit rate                                 : 3 777 Kbps
Width                                    : 720 pixels
Height                                   : 576 pixels
Display aspect ratio                     : 16:9
Frame rate                               : 50.000 fps
Original frame rate                      : 25.000 fps
Standard                                 : PAL
Color space                              : YUV
Chroma subsampling                       : 4:2:0
Bit depth                                : 8 bits
Scan type                                : MBAFF
Bits/(Pixel*Frame)                       : 0.182
Stream size                              : 1.42 GiB (94%)
Color primaries                          : BT.601 NTSC
Transfer characteristics                 : BT.601
Matrix coefficients                      : BT.601

Audio #1
ID                                       : 1
Format                                   : MPEG Audio
Format version                           : Version 1
Format profile                           : Layer 2
Codec ID                                 : 50
Duration                                 : 53mn 37s
Bit rate mode                            : Constant
Bit rate                                 : 160 Kbps
Channel(s)                               : 2 channels
Sampling rate                            : 48.0 KHz
Compression mode                         : Lossy
Stream size                              : 61.4 MiB (4%)
Alignment                                : Aligned on interleaves
Interleave, duration                     : 24 ms (1.20 video frame)

Audio #2
ID                                       : 2
Format                                   : MPEG Audio
Format version                           : Version 1
Format profile                           : Layer 2
Codec ID                                 : 50
Duration                                 : 53mn 37s
Bit rate mode                            : Constant
Bit rate                                 : 64.0 Kbps
Channel(s)                               : 1 channel
Sampling rate                            : 48.0 KHz
Compression mode                         : Lossy
Stream size                              : 24.5 MiB (2%)
Alignment                                : Aligned on interleaves
Interleave, duration                     : 24 ms (1.20 video frame)




Euroleague Semifinal [ 10 MAY 2013 ] CSKA Moscow vs. Olympiacos Piraeus [GR]2nd half.avi
Format                                   : AVI
Format/Info                              : Audio Video Interleave
File size                                : 1.26 GiB
Duration                                 : 44mn 22s
Overall bit rate                         : 4 056 Kbps

Video
ID                                       : 0
Format                                   : AVC
Format/Info                              : Advanced Video Codec
Format profile                           : Main@L3.0
Format settings, CABAC                   : Yes
Format settings, ReFrames                : 5 frames
Codec ID                                 : H264
Duration                                 : 44mn 22s
Bit rate                                 : 3 805 Kbps
Width                                    : 720 pixels
Height                                   : 576 pixels
Display aspect ratio                     : 16:9
Frame rate                               : 50.000 fps
Original frame rate                      : 25.000 fps
Standard                                 : PAL
Color space                              : YUV
Chroma subsampling                       : 4:2:0
Bit depth                                : 8 bits
Scan type                                : MBAFF
Scan order                               : Top Field First
Bits/(Pixel*Frame)                       : 0.183
Stream size                              : 1.18 GiB (94%)
Color primaries                          : BT.601 NTSC
Transfer characteristics                 : BT.601
Matrix coefficients                      : BT.601

Audio #1
ID                                       : 1
Format                                   : MPEG Audio
Format version                           : Version 1
Format profile                           : Layer 2
Codec ID                                 : 50
Duration                                 : 44mn 22s
Bit rate mode                            : Constant
Bit rate                                 : 160 Kbps
Channel(s)                               : 2 channels
Sampling rate                            : 48.0 KHz
Compression mode                         : Lossy
Stream size                              : 50.8 MiB (4%)
Alignment                                : Aligned on interleaves
Interleave, duration                     : 24 ms (1.20 video frame)

Audio #2
ID                                       : 2
Format                                   : MPEG Audio
Format version                           : Version 1
Format profile                           : Layer 2
Codec ID                                 : 50
Duration                                 : 44mn 22s
Bit rate mode                            : Constant
Bit rate                                 : 64.0 Kbps
Channel(s)                               : 1 channel
Sampling rate                            : 48.0 KHz
Compression mode                         : Lossy
Stream size                              : 20.3 MiB (2%)
Alignment                                : Aligned on interleaves
Interleave, duration                     : 24 ms (1.20 video frame)


 
http://image.bayimg.com/1fec9548877e2d61e86605b05bcc61908a93ae93.jpg


GREEK COMMENTARY
╬ò╬¢╬¢╬ù╬¥╬Ö╬Ü╬ù ╬á╬ò╬í╬Ö╬ô╬í╬æ╬ª╬ù


